<svg width="29" height="29" viewBox="0 0 29 29" fill="none" xmlns="http://www.w3.org/2000/svg">
<path fill-rule="evenodd" clip-rule="evenodd" d="M14.5003 2.41669C7.82691 2.41669 2.41699 7.82655 2.41699 14.5C2.41699 21.1734 7.82691 26.5834 14.5003 26.5834C21.1738 26.5834 26.5837 21.1735 26.5837 14.5C26.5837 7.82655 21.1738 2.41669 14.5003 2.41669ZM14.5003 24.1667C9.17014 24.1667 4.83368 19.8302 4.83368 14.5C4.83368 9.16978 9.17008 4.83337 14.5003 4.83337C19.8306 4.83337 24.167 9.16978 24.167 14.5C24.167 19.8302 19.8306 24.1667 14.5003 24.1667ZM16.0134 9.66669C16.0134 10.5428 15.3755 11.1771 14.5126 11.1771C13.6148 11.1771 12.9925 10.5427 12.9925 9.64992C12.9925 8.79182 13.6316 8.15631 14.5126 8.15631C15.3755 8.15631 16.0134 8.79182 16.0134 9.66669ZM13.2947 13.2917H15.7113V20.5417H13.2947V13.2917Z" fill="white"/>
</svg>
