<svg width="17" height="16" viewBox="0 0 17 16" fill="none" xmlns="http://www.w3.org/2000/svg">
<path d="M5.00001 11.6667C5.00001 11.6667 10.8333 12.5 13.3333 15H14.1667C14.3877 15 14.5996 14.9121 14.756 14.7559C14.9122 14.5997 15 14.3877 15 14.1666V9.11414C15.3581 9.02209 15.6755 8.81351 15.902 8.5213C16.1287 8.22909 16.2517 7.86977 16.2517 7.49998C16.2517 7.13019 16.1287 6.77094 15.902 6.47872C15.6755 6.18651 15.3581 5.97794 15 5.88583V0.833333C15 0.612325 14.9122 0.400354 14.756 0.244077C14.5996 0.0878 14.3877 0 14.1667 0H13.3333C10.8333 2.5 5.00001 3.33334 5.00001 3.33334H1.66666C1.22464 3.33334 0.800717 3.50893 0.488151 3.82149C0.175596 4.13405 0 4.55798 0 4.99998V10C0 10.442 0.175596 10.8659 0.488151 11.1785C0.800717 11.4911 1.22464 11.6667 1.66666 11.6667H2.5L3.33333 15.8333H5.00001V11.6667ZM6.66665 4.71751C7.23581 4.59583 7.93917 4.42584 8.70003 4.20334C10.0984 3.79167 11.875 3.14417 13.3333 2.145V12.8541C11.875 11.8559 10.0975 11.2083 8.70003 10.7967C8.02881 10.6005 7.35055 10.4293 6.66665 10.2834V4.71751ZM1.66666 4.99998H5.00001V10H1.66666V4.99998Z" fill="white"/>
</svg>
