<svg width="139" height="139" viewBox="0 0 139 139" fill="none" xmlns="http://www.w3.org/2000/svg">
<path d="M69.5 91.2188C79.0959 91.2188 86.875 83.4397 86.875 73.8438C86.875 64.2478 79.0959 56.4688 69.5 56.4688C59.9041 56.4688 52.125 64.2478 52.125 73.8438C52.125 83.4397 59.9041 91.2188 69.5 91.2188Z" fill="#2B72FB"/>
<path d="M117.281 39.0937H101.264C100.449 39.0937 99.4393 38.5671 98.652 37.7363L91.6097 26.6218C91.4983 26.4454 91.374 26.2775 91.2378 26.1195C88.8053 23.2825 85.5176 21.7188 81.9883 21.7188H57.0117C53.4824 21.7188 50.1947 23.2825 47.7622 26.1195C47.626 26.2775 47.5017 26.4454 47.3903 26.6218L40.348 37.7526C39.7453 38.4096 38.8983 39.11 38.0078 39.11V36.9382C38.0078 35.7861 37.5502 34.6813 36.7356 33.8667C35.9209 33.0521 34.8161 32.5944 33.6641 32.5944H27.1484C25.9964 32.5944 24.8916 33.0521 24.0769 33.8667C23.2623 34.6813 22.8047 35.7861 22.8047 36.9382V39.11H21.7187C18.2638 39.1136 14.9513 40.4877 12.5082 42.9308C10.0652 45.3738 8.69109 48.6863 8.6875 52.1413V104.25C8.69109 107.705 10.0652 111.017 12.5082 113.461C14.9513 115.904 18.2638 117.278 21.7187 117.281H117.281C120.736 117.278 124.049 115.904 126.492 113.461C128.935 111.017 130.309 107.705 130.312 104.25V52.125C130.309 48.67 128.935 45.3575 126.492 42.9145C124.049 40.4714 120.736 39.0973 117.281 39.0937ZM69.5 99.9062C64.3453 99.9062 59.3064 98.3777 55.0204 95.5139C50.7345 92.6501 47.394 88.5797 45.4214 83.8174C43.4488 79.0551 42.9327 73.8148 43.9383 68.7592C44.9439 63.7036 47.4261 59.0597 51.071 55.4148C54.7159 51.7699 59.3598 49.2877 64.4155 48.282C69.4711 47.2764 74.7114 47.7925 79.4737 49.7651C84.236 51.7377 88.3064 55.0782 91.1702 59.3642C94.034 63.6502 95.5625 68.6891 95.5625 73.8437C95.5546 80.7535 92.8062 87.378 87.9202 92.264C83.0343 97.1499 76.4098 99.8983 69.5 99.9062Z" fill="#2B72FB"/>
</svg>
