<svg width="12" height="13" viewBox="0 0 12 13" fill="none" xmlns="http://www.w3.org/2000/svg">
<path d="M0 11.9875V4.74417C0 4.53084 0.0477778 4.32891 0.143333 4.13832C0.238889 3.9478 0.370555 3.79084 0.538333 3.6675L5.02585 0.26917C5.26081 0.0897259 5.52919 0 5.83082 0C6.13252 0 6.40252 0.0897259 6.64082 0.26917L11.1284 3.66669C11.2967 3.79002 11.4283 3.94721 11.5233 4.13832C11.6189 4.32891 11.6667 4.53084 11.6667 4.74417V11.9875C11.6667 12.2108 11.5836 12.4056 11.4175 12.5717C11.2514 12.7378 11.0567 12.8208 10.8333 12.8208H8.01333C7.82222 12.8208 7.66222 12.7564 7.53333 12.6275C7.40444 12.498 7.34 12.338 7.34 12.1475V8.17336C7.34 7.98276 7.27556 7.82306 7.14667 7.69417C7.01726 7.56469 6.85719 7.50002 6.66667 7.50002H5C4.80948 7.50002 4.6497 7.56469 4.52081 7.69417C4.39141 7.82306 4.32667 7.98276 4.32667 8.17336V12.1483C4.32667 12.3389 4.26222 12.4986 4.13333 12.6275C4.00444 12.7564 3.84474 12.8208 3.65415 12.8208H0.833333C0.61 12.8208 0.415274 12.7378 0.249163 12.5717C0.0830518 12.4056 0 12.2108 0 11.9875Z" fill="white"/>
</svg>
