<svg width="157" height="32" viewBox="0 0 157 32" fill="none" xmlns="http://www.w3.org/2000/svg">
<path d="M28.5597 14.5627C28.7984 14.4574 29.001 14.2844 29.1423 14.0651C29.2836 13.8458 29.3575 13.5899 29.3548 13.329C29.3521 13.0681 29.273 12.8138 29.1271 12.5975C28.9813 12.3811 28.7752 12.2123 28.5344 12.112L17.1064 6.90667C16.759 6.74821 16.3816 6.6662 15.9997 6.6662C15.6179 6.6662 15.2405 6.74821 14.8931 6.90667L3.4664 12.1067C3.22902 12.2106 3.02709 12.3815 2.88529 12.5984C2.74349 12.8153 2.66797 13.0689 2.66797 13.328C2.66797 13.5872 2.74349 13.8407 2.88529 14.0576C3.02709 14.2745 3.22902 14.4454 3.4664 14.5493L14.8931 19.76C15.2405 19.9185 15.6179 20.0005 15.9997 20.0005C16.3816 20.0005 16.759 19.9185 17.1064 19.76L28.5597 14.5627Z" stroke="#D9CA81" stroke-width="2.66667" stroke-linecap="round" stroke-linejoin="round"/>
<path d="M29.333 13.3333V21.3333" stroke="#D9CA81" stroke-width="2.66667" stroke-linecap="round" stroke-linejoin="round"/>
<path d="M8 16.6667V21.3333C8 22.3942 8.84286 23.4116 10.3431 24.1618C11.8434 24.9119 13.8783 25.3333 16 25.3333C18.1217 25.3333 20.1566 24.9119 21.6569 24.1618C23.1571 23.4116 24 22.3942 24 21.3333V16.6667" stroke="#D9CA81" stroke-width="2.66667" stroke-linecap="round" stroke-linejoin="round"/>
<path d="M57.2383 24H53.4648L51.9648 20.0977H45.0977L43.6797 24H40L46.6914 6.82031H50.3594L57.2383 24ZM50.8516 17.2031L48.4844 10.8281L46.1641 17.2031H50.8516ZM59.0664 24V6.82031H62.3594V24H59.0664ZM73.9375 24V22.1367C73.4844 22.8008 72.8867 23.3242 72.1445 23.707C71.4102 24.0898 70.6328 24.2812 69.8125 24.2812C68.9766 24.2812 68.2266 24.0977 67.5625 23.7305C66.8984 23.3633 66.418 22.8477 66.1211 22.1836C65.8242 21.5195 65.6758 20.6016 65.6758 19.4297V11.5547H68.9688V17.2734C68.9688 19.0234 69.0273 20.0977 69.1445 20.4961C69.2695 20.8867 69.4922 21.1992 69.8125 21.4336C70.1328 21.6602 70.5391 21.7734 71.0312 21.7734C71.5938 21.7734 72.0977 21.6211 72.543 21.3164C72.9883 21.0039 73.293 20.6211 73.457 20.168C73.6211 19.707 73.7031 18.5859 73.7031 16.8047V11.5547H76.9961V24H73.9375ZM80.1719 11.5547H83.207V13.2539C84.293 11.9336 85.5859 11.2734 87.0859 11.2734C87.8828 11.2734 88.5742 11.4375 89.1602 11.7656C89.7461 12.0938 90.2266 12.5898 90.6016 13.2539C91.1484 12.5898 91.7383 12.0938 92.3711 11.7656C93.0039 11.4375 93.6797 11.2734 94.3984 11.2734C95.3125 11.2734 96.0859 11.4609 96.7188 11.8359C97.3516 12.2031 97.8242 12.7461 98.1367 13.4648C98.3633 13.9961 98.4766 14.8555 98.4766 16.043V24H95.1836V16.8867C95.1836 15.6523 95.0703 14.8555 94.8438 14.4961C94.5391 14.0273 94.0703 13.793 93.4375 13.793C92.9766 13.793 92.543 13.9336 92.1367 14.2148C91.7305 14.4961 91.4375 14.9102 91.2578 15.457C91.0781 15.9961 90.9883 16.8516 90.9883 18.0234V24H87.6953V17.1797C87.6953 15.9688 87.6367 15.1875 87.5195 14.8359C87.4023 14.4844 87.2188 14.2227 86.9688 14.0508C86.7266 13.8789 86.3945 13.793 85.9727 13.793C85.4648 13.793 85.0078 13.9297 84.6016 14.2031C84.1953 14.4766 83.9023 14.8711 83.7227 15.3867C83.5508 15.9023 83.4648 16.7578 83.4648 17.9531V24H80.1719V11.5547ZM113.09 24H109.797V17.6484C109.797 16.3047 109.727 15.4375 109.586 15.0469C109.445 14.6484 109.215 14.3398 108.895 14.1211C108.582 13.9023 108.203 13.793 107.758 13.793C107.188 13.793 106.676 13.9492 106.223 14.2617C105.77 14.5742 105.457 14.9883 105.285 15.5039C105.121 16.0195 105.039 16.9727 105.039 18.3633V24H101.746V11.5547H104.805V13.3828C105.891 11.9766 107.258 11.2734 108.906 11.2734C109.633 11.2734 110.297 11.4062 110.898 11.6719C111.5 11.9297 111.953 12.2617 112.258 12.668C112.57 13.0742 112.785 13.5352 112.902 14.0508C113.027 14.5664 113.09 15.3047 113.09 16.2656V24Z" fill="white"/>
<path d="M131.957 24H128.184L126.684 20.0977H119.816L118.398 24H114.719L121.41 6.82031H125.078L131.957 24ZM125.57 17.2031L123.203 10.8281L120.883 17.2031H125.57ZM133.703 24V6.82031H137.172V24H133.703Z" fill="#D9CA81"/>
</svg>
