<svg width="17" height="17" viewBox="0 0 17 17" fill="none" xmlns="http://www.w3.org/2000/svg">
<g clip-path="url(#clip0_3262_9962)">
<path d="M5.3125 0C2.37967 0 0 2.14193 0 4.78125C0 9.03125 5.3125 14.875 5.3125 14.875C5.3125 14.875 10.625 9.03125 10.625 4.78125C10.625 2.14193 8.24533 0 5.3125 0ZM5.3125 7.4375C4.89221 7.4375 4.48137 7.31287 4.13191 7.07937C3.78246 6.84587 3.51009 6.514 3.34926 6.1257C3.18842 5.73741 3.14634 5.31014 3.22833 4.89793C3.31032 4.48572 3.51271 4.10708 3.8099 3.8099C4.10708 3.51271 4.48572 3.31032 4.89793 3.22833C5.31014 3.14634 5.73741 3.18842 6.1257 3.34926C6.51399 3.51009 6.84587 3.78246 7.07937 4.13191C7.31287 4.48137 7.4375 4.89221 7.4375 5.3125C7.43688 5.8759 7.2128 6.41604 6.81442 6.81442C6.41604 7.2128 5.8759 7.43688 5.3125 7.4375Z" fill="white"/>
</g>
<defs>
<clipPath id="clip0_3262_9962">
<rect width="17" height="17" fill="white"/>
</clipPath>
</defs>
</svg>
