<svg width="20" height="20" viewBox="0 0 20 20" fill="none" xmlns="http://www.w3.org/2000/svg">
<g clip-path="url(#clip0_3262_9952)">
<path d="M5.305 6.40167C6.08708 7.7753 7.2247 8.91292 8.59833 9.695L9.335 8.66333C9.45346 8.49745 9.62862 8.38073 9.82734 8.33528C10.026 8.28982 10.2345 8.31878 10.4133 8.41667C11.5917 9.06129 12.8934 9.44869 14.2325 9.55333C14.4415 9.56989 14.6365 9.66461 14.7788 9.8186C14.921 9.97259 15 10.1745 15 10.3842V14.1025C15 14.3088 14.9235 14.5078 14.7853 14.661C14.6471 14.8142 14.4569 14.9106 14.2517 14.9317C13.81 14.9772 13.365 15 12.9167 15C5.78333 15 0 9.21667 0 2.08333C0 1.635 0.0227778 1.19 0.0683333 0.748333C0.0893788 0.543081 0.18582 0.352934 0.338991 0.214695C0.492163 0.076456 0.691172 -4.44648e-05 0.8975 1.93894e-08H4.61583C4.82547 -2.62654e-05 5.02741 0.0789596 5.1814 0.221209C5.33539 0.363458 5.43011 0.55852 5.44667 0.7675C5.5513 2.1066 5.93871 3.40828 6.58333 4.58667C6.68122 4.76547 6.71018 4.97395 6.66472 5.17266C6.61927 5.37137 6.50255 5.54653 6.33667 5.665L5.305 6.40167ZM3.20333 5.85417L4.78667 4.72333C4.33721 3.75345 4.02935 2.72406 3.8725 1.66667H1.675C1.66944 1.80556 1.66667 1.94444 1.66667 2.08333C1.66667 8.29667 6.70333 13.3333 12.9167 13.3333C13.0556 13.3333 13.1944 13.3306 13.3333 13.325V11.1275C12.2759 10.9707 11.2465 10.6628 10.2767 10.2133L9.14583 11.7967C8.69061 11.6196 8.24841 11.4108 7.8225 11.1717L7.77417 11.1442C6.13975 10.2138 4.7862 8.86025 3.85583 7.22583L3.82833 7.1775C3.58899 6.75171 3.38013 6.30949 3.20333 5.85417Z" fill="white"/>
</g>
<defs>
<clipPath id="clip0_3262_9952">
<rect width="20" height="20" fill="white"/>
</clipPath>
</defs>
</svg>
