<svg width="29" height="29" viewBox="0 0 29 29" fill="none" xmlns="http://www.w3.org/2000/svg">
<path d="M22.958 2.41669H6.04134C5.374 2.41669 4.83301 2.95768 4.83301 3.62502V25.375C4.83301 26.0424 5.374 26.5834 6.04134 26.5834H22.958C23.6254 26.5834 24.1663 26.0424 24.1663 25.375V3.62502C24.1663 2.95768 23.6254 2.41669 22.958 2.41669Z" stroke="white" stroke-width="2" stroke-linejoin="round"/>
<path d="M14.4997 11.4792C15.1406 11.4792 15.7553 11.2246 16.2085 10.7714C16.6617 10.3182 16.9163 9.70348 16.9163 9.06254C16.9163 8.4216 16.6617 7.80691 16.2085 7.3537C15.7553 6.90049 15.1406 6.64587 14.4997 6.64587C13.8587 6.64587 13.244 6.90049 12.7908 7.3537C12.3376 7.80691 12.083 8.4216 12.083 9.06254C12.083 9.70348 12.3376 10.3182 12.7908 10.7714C13.244 11.2246 13.8587 11.4792 14.4997 11.4792Z" stroke="white" stroke-width="2" stroke-linejoin="round"/>
<path d="M18.125 15.1042C18.125 14.1428 17.7431 13.2207 17.0633 12.5409C16.3834 11.8611 15.4614 11.4792 14.5 11.4792C13.5386 11.4792 12.6166 11.8611 11.9367 12.5409C11.2569 13.2207 10.875 14.1428 10.875 15.1042M10.875 18.7292H18.125M10.875 22.3542H15.1042" stroke="white" stroke-width="2" stroke-linecap="round" stroke-linejoin="round"/>
</svg>
