<svg width="17" height="17" viewBox="0 0 17 17" fill="none" xmlns="http://www.w3.org/2000/svg">
<path fill-rule="evenodd" clip-rule="evenodd" d="M8.33332 2.87554e-10C9.42768 -9.09062e-06 10.5113 0.215536 11.5223 0.634327C12.5334 1.05311 13.452 1.66694 14.2259 2.44075C14.9997 3.21458 15.6136 4.13324 16.0323 5.14428C16.4511 6.15534 16.6667 7.23896 16.6667 8.33332C16.6667 12.9357 12.9357 16.6667 8.33332 16.6667C3.73097 16.6667 0 12.9357 0 8.33332C0 3.73097 3.73097 2.87554e-10 8.33332 2.87554e-10ZM9.16668 9.16668H7.49995C5.43691 9.16668 3.6657 10.4161 2.90175 12.1998C4.11051 13.8948 6.09285 15 8.33332 15C10.5738 15 12.5561 13.8948 13.765 12.1997C13.001 10.4161 11.2298 9.16668 9.16668 9.16668ZM8.33332 2.5C6.95262 2.5 5.83332 3.61929 5.83332 5C5.83332 6.3807 6.95262 7.49995 8.33332 7.49995C9.71405 7.49995 10.8333 6.3807 10.8333 5C10.8333 3.61929 9.71405 2.5 8.33332 2.5Z" fill="white"/>
</svg>
