<svg width="91" height="80" viewBox="0 0 91 80" fill="none" xmlns="http://www.w3.org/2000/svg">
<path d="M60.9223 18.2033C61.2207 18.0717 61.4739 17.8555 61.6505 17.5813C61.8272 17.3072 61.9195 16.9873 61.9162 16.6612C61.9128 16.3351 61.8138 16.0172 61.6315 15.7468C61.4493 15.4764 61.1916 15.2654 60.8906 15.14L46.6056 8.63332C46.1714 8.43524 45.6996 8.33273 45.2223 8.33273C44.745 8.33273 44.2732 8.43524 43.839 8.63332L29.5557 15.1333C29.2589 15.2633 29.0065 15.4769 28.8293 15.748C28.652 16.0192 28.5576 16.3361 28.5576 16.66C28.5576 16.9839 28.652 17.3008 28.8293 17.572C29.0065 17.8431 29.2589 18.0567 29.5557 18.1867L43.839 24.7C44.2732 24.8981 44.745 25.0006 45.2223 25.0006C45.6996 25.0006 46.1714 24.8981 46.6056 24.7L60.9223 18.2033Z" stroke="#D9CA81" stroke-width="2.66667" stroke-linecap="round" stroke-linejoin="round"/>
<path d="M61.8892 16.6667V26.6667" stroke="#D9CA81" stroke-width="2.66667" stroke-linecap="round" stroke-linejoin="round"/>
<path d="M35.2222 20.8333V26.6667C35.2222 27.9927 36.2758 29.2645 38.1511 30.2022C40.0265 31.1399 42.57 31.6667 45.2222 31.6667C47.8744 31.6667 50.4179 31.1399 52.2933 30.2022C54.1686 29.2645 55.2222 27.9927 55.2222 26.6667V20.8333" stroke="#D9CA81" stroke-width="2.66667" stroke-linecap="round" stroke-linejoin="round"/>
<path d="M5.05957 67.6884L3.7168 71.5555H0.547852L6.06934 56.4198H9.80762L15.3076 71.5555H12.1709L10.8281 67.6884H5.05957ZM7.93848 58.7509C7.86686 59.0373 7.7666 59.3811 7.6377 59.7821C7.50879 60.1831 7.41569 60.466 7.3584 60.6307L5.76855 65.3036H10.1191L8.48633 60.5341C8.38607 60.2404 8.29297 59.9432 8.20703 59.6425C8.12109 59.3417 8.03158 59.0445 7.93848 58.7509ZM20.4531 55.6141V71.5555H17.4346V55.6141H20.4531ZM30.9482 69.246C30.5472 70.1268 30.0352 70.7678 29.4121 71.1688C28.7962 71.5699 28.0622 71.7704 27.21 71.7704C25.9782 71.7704 25.0329 71.3944 24.374 70.6425C23.7152 69.8833 23.3857 68.7733 23.3857 67.3124V59.9325H26.4043V66.453C26.4043 67.4699 26.5762 68.2362 26.9199 68.7518C27.2637 69.2603 27.7793 69.5145 28.4668 69.5145C29.1973 69.5145 29.7845 69.203 30.2285 68.58C30.6797 67.9497 30.9053 67.1441 30.9053 66.163V59.9325H33.9238V68.9559C33.9238 69.4501 33.931 69.9156 33.9453 70.3524C33.9596 70.7821 33.9811 71.1831 34.0098 71.5555H31.1309C31.0879 71.0399 31.0557 70.5887 31.0342 70.202C31.0127 69.8153 31.002 69.4966 31.002 69.246H30.9482ZM40.0254 65.3251V71.5555H37.0068V62.5321C37.0068 61.9091 36.9961 61.4006 36.9746 61.0067C36.9603 60.6057 36.9424 60.2476 36.9209 59.9325H39.7998C39.8141 60.0184 39.832 60.2225 39.8535 60.5448C39.875 60.8599 39.8929 61.1858 39.9072 61.5223C39.9287 61.8518 39.9395 62.0917 39.9395 62.2421H39.9824C40.3548 61.354 40.8167 60.7095 41.3682 60.3085C41.9268 59.9074 42.5928 59.7069 43.3662 59.7069C44.2542 59.7069 44.9668 59.9182 45.5039 60.3407C46.0482 60.7632 46.4134 61.397 46.5996 62.2421H46.6641C47.0579 61.3397 47.5306 60.6916 48.082 60.2977C48.6335 59.9038 49.3353 59.7069 50.1875 59.7069C51.319 59.7069 52.182 60.0936 52.7764 60.8671C53.3708 61.6333 53.668 62.7362 53.668 64.1757V71.5555H50.6709V65.035C50.6709 64.0109 50.5241 63.2447 50.2305 62.7362C49.9368 62.2277 49.4964 61.9735 48.9092 61.9735C48.3219 61.9735 47.8314 62.26 47.4375 62.8329C47.0436 63.3986 46.8467 64.1828 46.8467 65.1854V71.5555H43.8496V65.035C43.8496 64.0109 43.7028 63.2447 43.4092 62.7362C43.1156 62.2277 42.6751 61.9735 42.0879 61.9735C41.4792 61.9735 40.9814 62.285 40.5947 62.9081C40.2152 63.5311 40.0254 64.3368 40.0254 65.3251ZM59.5977 65.3251V71.5555H56.5791V62.5321C56.5791 61.9091 56.5684 61.4006 56.5469 61.0067C56.5326 60.6057 56.5146 60.2476 56.4932 59.9325H59.3721C59.3864 60.0184 59.4043 60.2225 59.4258 60.5448C59.4473 60.8599 59.4652 61.1858 59.4795 61.5223C59.501 61.8518 59.5117 62.0917 59.5117 62.2421H59.5547C59.9629 61.354 60.4749 60.7095 61.0908 60.3085C61.7067 59.9074 62.4408 59.7069 63.293 59.7069C64.5247 59.7069 65.4701 60.0865 66.1289 60.8456C66.7878 61.6047 67.1172 62.7147 67.1172 64.1757V71.5555H64.1094V65.035C64.1094 64.0109 63.9375 63.2447 63.5938 62.7362C63.25 62.2277 62.7308 61.9735 62.0361 61.9735C61.3057 61.9735 60.7148 62.2886 60.2637 62.9188C59.8197 63.5419 59.5977 64.344 59.5977 65.3251Z" fill="white"/>
<path d="M73.5039 67.6884L72.1611 71.5555H68.9922L74.5137 56.4198H78.252L83.752 71.5555H80.6152L79.2725 67.6884H73.5039ZM76.3828 58.7509C76.3112 59.0373 76.2109 59.3811 76.082 59.7821C75.9531 60.1831 75.86 60.466 75.8027 60.6307L74.2129 65.3036H78.5635L76.9307 60.5341C76.8304 60.2404 76.7373 59.9432 76.6514 59.6425C76.5654 59.3417 76.4759 59.0445 76.3828 58.7509ZM88.9834 56.4198V71.5555H85.8145V56.4198H88.9834Z" fill="#D9CA81"/>
</svg>
